<?xml version="1.0" standalone="no"?><!DOCTYPE svg PUBLIC "-//W3C//DTD SVG 1.1//EN" "http://www.w3.org/Graphics/SVG/1.1/DTD/svg11.dtd"><svg t="1786005805612" class="icon" viewBox="0 0 1024 1024" version="1.1" xmlns="http://www.w3.org/2000/svg" p-id="28085" xmlns:xlink="http://www.w3.org/1999/xlink" width="256" height="256"><path d="M416 560a48 48 0 0 1 48 48V768A208 208 0 1 1 256 560h160z m352 0A208 208 0 1 1 560 768V608a48 48 0 0 1 48-48z m-400 96H256a112 112 0 0 0 0 224l9.216-0.384A112 112 0 0 0 368 768v-112z m400 0h-112V768a112 112 0 0 0 102.784 111.616l9.216 0.384a112 112 0 0 0 0-224zM256 48A208 208 0 0 1 464 256v160a48 48 0 0 1-48 48H256a208 208 0 1 1 0-416z m512 0a208 208 0 0 1 0 416H608a48 48 0 0 1-48-48V256A208 208 0 0 1 768 48z m-512 96a112 112 0 0 0 0 224h112V256a112 112 0 0 0-102.784-111.616z m512 0l-9.216 0.384A112 112 0 0 0 656 256v112H768a112 112 0 0 0 0-224z" fill="#000000" p-id="28086"></path></svg>