<?xml version="1.0" standalone="no"?><!DOCTYPE svg PUBLIC "-//W3C//DTD SVG 1.1//EN" "http://www.w3.org/Graphics/SVG/1.1/DTD/svg11.dtd"><svg t="1780050088576" class="icon" viewBox="0 0 1024 1024" version="1.1" xmlns="http://www.w3.org/2000/svg" p-id="15321" xmlns:xlink="http://www.w3.org/1999/xlink" width="256" height="256"><g transform="translate(51.2 51.2) scale(0.90)"><path d="M672.881778 502.215111a225.28 225.28 0 0 1-77.141334 50.688A225.450667 225.450667 0 0 1 512 568.888889a225.450667 225.450667 0 0 1-83.740444-15.928889 225.28 225.28 0 0 1-77.141334-50.744889 225.223111 225.223111 0 0 1-50.688-77.141333A225.564444 225.564444 0 0 1 284.444444 341.333333c0-28.672 5.347556-57.116444 15.928889-83.740444 11.605333-29.240889 28.501333-54.954667 50.744889-77.141333a225.28 225.28 0 0 1 77.141334-50.688A225.564444 225.564444 0 0 1 512 113.777778c28.672 0 57.116444 5.347556 83.740444 15.928889 29.240889 11.605333 54.954667 28.501333 77.141334 50.744889 22.186667 22.186667 39.139556 47.900444 50.688 77.141333 10.638222 26.624 16.042667 55.068444 15.985778 83.740444 0 28.672-5.404444 57.116444-15.928889 83.740445a225.28 225.28 0 0 1-50.744889 77.141333z m-50.801778-270.961778a154.168889 154.168889 0 0 0-52.792889-34.702222A154.339556 154.339556 0 0 0 512 185.628444c-19.626667 0-39.082667 3.697778-57.287111 10.922667a154.112 154.112 0 0 0-52.792889 34.702222c-15.075556 15.018667-26.908444 32.995556-34.702222 52.792889-7.224889 18.204444-10.922667 37.660444-10.922667 57.287111 0 19.797333 3.640889 38.912 10.922667 57.287111 7.793778 19.797333 19.626667 37.774222 34.702222 52.792889 15.018667 15.075556 32.995556 26.908444 52.792889 34.702223 18.204444 7.224889 37.660444 10.979556 57.287111 10.922666 19.626667 0 39.082667-3.697778 57.287111-10.922666 19.797333-7.793778 37.774222-19.626667 52.792889-34.702223 15.075556-15.018667 26.908444-32.995556 34.702222-52.792889 7.224889-18.204444 10.922667-37.660444 10.922667-57.287111 0-19.626667-3.697778-39.082667-10.922667-57.287111a153.998222 153.998222 0 0 0-34.702222-52.792889z" p-id="15322"></path><path d="M228.750222 616.220444a388.152889 388.152889 0 0 1 122.481778-88.177777 368.64 368.64 0 0 1 134.371556-33.052445 33.678222 33.678222 0 0 1 25.144888 9.671111c6.883556 6.599111 10.979556 15.928889 11.434667 25.770667a38.912 38.912 0 0 1-8.931555 26.851556 34.133333 34.133333 0 0 1-24.177778 12.288 302.819556 302.819556 0 0 0-110.364445 27.192888 318.691556 318.691556 0 0 0-100.579555 72.362667 342.357333 342.357333 0 0 0-68.380445 106.951111 359.992889 359.992889 0 0 0-26.055111 117.703111c-1.024 20.593778-17.578667 36.408889-36.864 35.271111a34.133333 34.133333 0 0 1-24.120889-12.401777 38.912 38.912 0 0 1-8.874666-26.965334 438.385778 438.385778 0 0 1 31.687111-143.246222 416.938667 416.938667 0 0 1 83.228444-130.275555z m426.894222 333.824c-19.342222 0-34.986667-16.725333-34.986666-37.319111v-231.537777c0-20.650667 15.644444-37.319111 34.986666-37.319112 19.342222 0 34.986667 16.668444 34.986667 37.319112v231.537777c0 20.593778-15.644444 37.319111-34.986667 37.319111z m-111.957333-61.610666c-19.342222 0-34.986667-16.725333-34.986667-37.319111V744.675556c0-20.650667 15.644444-37.376 34.986667-37.376 19.342222 0 34.986667 16.725333 34.986667 37.376v106.382222c0 20.650667-15.701333 37.376-34.986667 37.376z m223.971556 0c-19.342222 0-34.986667-16.725333-34.986667-37.319111V744.675556c0-20.650667 15.644444-37.376 34.986667-37.376 19.342222 0 34.986667 16.725333 34.986666 37.376v106.382222c0 20.650667-15.701333 37.376-34.986666 37.376zM967.111111 797.013333c0 20.593778-15.644444 37.319111-34.986667 37.319111h-45.511111c-19.342222 0-34.986667-16.725333-34.986666-37.319111 0-20.650667 15.644444-37.376 34.986666-37.376h45.511111c19.342222 0 34.986667 16.725333 34.986667 37.376z" p-id="15323"></path></g></svg>