<svg xmlns="http://www.w3.org/2000/svg" width="16" height="16" fill="none" viewBox="0 0 16 16"><path fill="#fff" d="M10.345 10.765a.613.613 0 1 1 1.008.697 5.6 5.6 0 0 1-3.931 2.367v.656a.614.614 0 0 1-1.227 0v-.641a5.6 5.6 0 0 1-4.087-2.382.613.613 0 0 1 1.008-.697 4.39 4.39 0 0 0 3.614 1.88 4.38 4.38 0 0 0 3.614-1.88M6.73 1a3.295 3.295 0 0 1 3.251 2.764q-.054-.004-.108-.005a1.993 1.993 0 0 0 0 3.984q.072-.001.142-.008a3.294 3.294 0 0 1-6.58-.222V4.295A3.295 3.295 0 0 1 6.731 1m7.67 1.542a.613.613 0 0 1 .832.24 6.13 6.13 0 0 1-.055 6.031.614.614 0 0 1-1.062-.612c.427-.74.656-1.584.657-2.446l-.01-.313a4.9 4.9 0 0 0-.603-2.067.614.614 0 0 1 .24-.833m-2.332 1.435a.613.613 0 0 1 .821.276 3.37 3.37 0 0 1-.1 3.184.614.614 0 0 1-1.062-.613 2.15 2.15 0 0 0 .065-2.026.613.613 0 0 1 .276-.821M9.871 4.985a.766.766 0 1 1-.002 1.533.766.766 0 0 1 .002-1.533"></path></svg>